<?xml version="1.0" encoding="utf-8"?>
<!-- Generator: Adobe Illustrator 19.2.0, SVG Export Plug-In . SVG Version: 6.00 Build 0)  -->
<svg version="1.1" id="Layer_1" xmlns="http://www.w3.org/2000/svg" xmlns:xlink="http://www.w3.org/1999/xlink" x="0px" y="0px"
	 viewBox="0 0 512 512" style="enable-background:new 0 0 512 512;" xml:space="preserve">
<style type="text/css">
	.st0{fill:#020914;}
	.st1{fill:#02030C;}
	.st2{fill:#FFCE00;}
	.st3{fill:#FFA300;}
</style>
<path class="st0" d="M512,256c0,141.4-114.6,256-256,256S0,397.4,0,256S114.6,0,256,0S512,114.6,512,256z"/>
<path class="st1" d="M508,301.1L307.1,100.2h-62.2L75.2,369.1l139.6,139.6c13.4,2.2,27.2,3.3,41.2,3.3C382,512,486.7,421,508,301.1z
	"/>
<g>
	<path class="st2" d="M343.1,262.1l-28.4-13.6c-18.4-8.8-38.2-13.3-58.8-13.3c-20.6,0-40.4,4.5-58.8,13.3l-28.4,13.6l-3-31.3
		c-0.6-5.9-0.9-11.8-0.9-17.6c0-59.6,29.4-115.2,78.6-148.8l12.4-8.5l12.4,8.5C317.6,98,347,153.7,347,213.2
		c0,5.8-0.3,11.7-0.9,17.6L343.1,262.1z M256,191.2c15.8,0,31.2,2,46.1,5.9c-4-33.7-20.4-64.6-46.1-86.9
		c-25.7,22.2-42.1,53.2-46.1,86.9C224.8,193.2,240.2,191.2,256,191.2z"/>
	<path class="st2" d="M345.1,393.4c-36.4,0-71.5-10.8-101.5-31.3L217,343.9l26.6-18.2c33.5-22.9,54.9-59,58.8-99.2l3-31.3l28.4,13.6
		c27.6,13.2,51.5,33.4,69.2,58.4c18.1,25.5,29.3,55.4,32.3,86.5l1.5,15.3l-13.9,6.7C398.5,387.5,372.3,393.4,345.1,393.4z
		 M295,339.9c15.8,6.3,32.8,9.5,50.1,9.5c15.1,0,29.8-2.4,43.9-7.2c-6.8-30.9-24.4-58.6-49.2-78.1C331.4,292.7,316,318.7,295,339.9z
		"/>
	<path class="st2" d="M166.9,393.4c-27.2,0-53.4-5.9-77.8-17.6l-13.9-6.7l1.5-15.3c3-31.1,14.2-61,32.3-86.5
		c17.7-25,41.7-45.2,69.2-58.4l28.4-13.6l3,31.3c3.9,40.1,25.3,76.3,58.8,99.2l26.6,18.2l-26.6,18.2
		C238.4,382.6,203.3,393.4,166.9,393.4z M123,342.2c14,4.8,28.7,7.2,43.9,7.2c17.3,0,34.3-3.2,50.1-9.5
		c-21-21.2-36.4-47.2-44.7-75.8C147.4,283.5,129.8,311.3,123,342.2z"/>
	<path class="st2" d="M256,370.5l-12.4-8.5c-44.3-30.2-72.6-78.1-77.8-131.2l-1.5-15.3l13.9-6.7c24.4-11.7,50.6-17.6,77.8-17.6
		s53.4,5.9,77.8,17.6l13.9,6.7l-1.5,15.3c-5.2,53.2-33.5,101-77.8,131.2L256,370.5z M212.1,242.4c6.3,28.7,21.6,54.5,43.9,73.7
		c22.3-19.3,37.6-45.1,43.9-73.7c-14-4.8-28.8-7.2-43.9-7.2S226.2,237.7,212.1,242.4z"/>
	<path class="st2" d="M243.6,325.7L217,343.9l26.6,18.2c4,2.8,8.2,5.3,12.4,7.8v-53.7C252.1,319.6,247.9,322.8,243.6,325.7z"/>
	<path class="st2" d="M295,343.9l-26.6-18.2c-4.3-3-8.5-6.2-12.4-9.6v53.7c4.2-2.4,8.4-5,12.4-7.8L295,343.9z"/>
</g>
<path class="st3" d="M435.3,353.8c-3-31.1-14.2-61-32.3-86.5c-17.7-25-41.7-45.2-69.2-58.4l-28.4-13.6l-3,31.3
	c-3.4,34.9-20.1,66.8-46.4,89.6v53.7c27.1,15.5,57.6,23.6,89.1,23.6c27.2,0,53.4-5.9,77.8-17.6l13.9-6.6L435.3,353.8z M345.1,349.4
	c-17.3,0-34.3-3.2-50.1-9.5c21-21.2,36.4-47.2,44.7-75.8c24.8,19.5,42.4,47.2,49.2,78.1C374.9,347,360.2,349.4,345.1,349.4z"/>
<path class="st3" d="M268.4,64.4L256,55.9v54.4c25.7,22.2,42.1,53.2,46.1,86.9c-14.9-3.9-30.3-5.9-46.1-5.9v44
	c20.6,0,40.4,4.5,58.8,13.3l28.4,13.6l3-31.3c0.6-5.9,0.9-11.8,0.9-17.6C347,153.7,317.6,98,268.4,64.4z"/>
<path class="st3" d="M333.8,208.9c-24.4-11.7-50.6-17.6-77.8-17.6v44c15.1,0,29.8,2.4,43.9,7.2c-6.3,28.7-21.6,54.5-43.9,73.7v54.4
	l12.4-8.5c44.3-30.2,72.6-78.1,77.8-131.2l1.5-15.3L333.8,208.9z"/>
</svg>
