<?xml version="1.0" encoding="utf-8"?>
<!-- Generator: Adobe Illustrator 24.1.0, SVG Export Plug-In . SVG Version: 6.00 Build 0)  -->
<svg version="1.1" id="Lager_1" xmlns="http://www.w3.org/2000/svg" xmlns:xlink="http://www.w3.org/1999/xlink" x="0px" y="0px"
	 viewBox="0 0 569 569" style="enable-background:new 0 0 569 569;" xml:space="preserve">
<style type="text/css">
	.st0{fill:#161415;stroke:#FFFFFF;stroke-miterlimit:10;}
</style>
<path class="st0" d="M0,0v569h569V0H0z M536.3,364.3l-77.7-129.6l-59.1,112c-0.3,0.6-0.7,1.2-1,1.8c-0.3,0.5-0.7,1.1-1.1,1.6
	c-0.4,0.6-0.8,1.1-1.3,1.6c-0.4,0.5-0.9,1-1.3,1.5c-0.4,0.5-0.9,0.9-1.4,1.4c-0.5,0.4-1,0.9-1.5,1.3c-0.5,0.4-1.1,0.8-1.6,1.2
	c-0.6,0.4-1.1,0.8-1.7,1.1c-0.6,0.3-1.1,0.7-1.7,1c-0.6,0.3-1.2,0.6-1.8,0.9c-0.7,0.3-1.3,0.5-1.9,0.8c-0.6,0.2-1.3,0.4-1.9,0.6
	c-0.6,0.2-1.3,0.3-1.9,0.5c-0.7,0.1-1.3,0.3-2,0.4c-0.7,0.1-1.3,0.2-2,0.2c-0.7,0.1-1.4,0.1-2,0.1c-0.7,0-1.4,0-2.1,0
	c-0.6,0-1.3-0.1-2-0.2c-0.6-0.1-1.3-0.2-2-0.3c-0.6-0.1-1.3-0.3-1.9-0.4c-0.7-0.2-1.3-0.4-1.9-0.6c-0.6-0.2-1.3-0.5-1.9-0.7
	c-0.6-0.3-1.2-0.5-1.8-0.8c-0.6-0.3-1.2-0.6-1.8-1c-0.6-0.3-1.1-0.7-1.7-1c-0.6-0.4-1.1-0.8-1.7-1.2c-0.5-0.4-1.1-0.9-1.6-1.3
	c-0.5-0.4-1-0.9-1.4-1.4c-0.5-0.5-0.9-1-1.4-1.5c-0.5-0.5-0.9-1-1.3-1.6c-0.4-0.5-0.8-1.1-1.2-1.6c-0.4-0.6-0.7-1.2-1.1-1.8
	l-62.4-112l-60.8,112c-0.3,0.6-0.6,1.1-1,1.7c-0.4,0.6-0.7,1.1-1.1,1.7c-0.4,0.5-0.8,1.1-1.3,1.6c-0.4,0.5-0.9,1-1.3,1.5
	c-0.5,0.5-0.9,1-1.4,1.4c-0.5,0.5-1,0.9-1.6,1.3c-0.5,0.4-1.1,0.8-1.6,1.2c-0.5,0.4-1.1,0.7-1.7,1.1c-0.6,0.4-1.2,0.7-1.7,1
	c-0.6,0.3-1.2,0.6-1.8,0.8c-0.7,0.3-1.3,0.5-1.9,0.8c-0.6,0.2-1.2,0.4-1.8,0.6c-0.7,0.2-1.4,0.4-2,0.5c-0.6,0.1-1.3,0.2-1.9,0.3
	c-0.6,0.1-1.3,0.2-2,0.2c-0.7,0-1.4,0.1-2,0.1c-0.7,0-1.3,0-2-0.1c-0.6,0-1.3-0.1-2-0.2c-0.7-0.1-1.3-0.2-2-0.3
	c-0.6-0.1-1.3-0.3-1.9-0.4c-0.6-0.2-1.3-0.4-1.9-0.6c-0.6-0.2-1.3-0.5-1.9-0.7c-0.6-0.2-1.2-0.5-1.8-0.8c-0.6-0.3-1.2-0.6-1.8-1
	c-0.6-0.3-1.2-0.7-1.7-1.1c-0.5-0.4-1.1-0.8-1.6-1.2c-0.5-0.4-1-0.8-1.5-1.3c-0.5-0.4-1-0.9-1.4-1.4c-0.5-0.5-0.9-1-1.3-1.5
	c-0.4-0.5-0.8-1-1.3-1.6c-0.4-0.5-0.8-1.1-1.1-1.6c-0.4-0.6-0.7-1.1-1-1.7l-63-113.1L33.1,364.5l-26-15L82,219.5
	c0.3-0.6,0.7-1.1,1-1.7c0.4-0.5,0.7-1.1,1.1-1.6c0.4-0.5,0.8-1,1.3-1.5c0.4-0.5,0.9-1,1.3-1.4c0.5-0.5,1-0.9,1.5-1.4
	c0.5-0.4,1-0.9,1.5-1.3c0.5-0.4,1.1-0.8,1.6-1.1c0.5-0.4,1.1-0.7,1.7-1c0.6-0.3,1.2-0.6,1.8-0.9c0.6-0.3,1.2-0.6,1.8-0.8
	c0.6-0.3,1.2-0.5,1.9-0.7c0.6-0.2,1.2-0.4,1.9-0.6c0.7-0.2,1.3-0.3,1.9-0.4c0.6-0.1,1.3-0.2,1.9-0.3c0.7-0.1,1.3-0.1,2-0.2
	c0.6,0,1.3-0.1,2-0.1c0.7,0,1.3,0,2,0.1c0.7,0,1.3,0.1,2,0.2c0.7,0.1,1.3,0.2,2,0.3c0.6,0.1,1.3,0.3,1.9,0.5
	c0.6,0.2,1.3,0.4,1.9,0.6c0.6,0.2,1.2,0.5,1.8,0.7c0.6,0.3,1.2,0.5,1.8,0.8c0.6,0.3,1.2,0.6,1.7,1c0.6,0.3,1.1,0.7,1.7,1.1
	c0.6,0.4,1.1,0.8,1.6,1.2c0.5,0.4,1,0.8,1.5,1.3c0.5,0.4,1,0.9,1.4,1.4c0.5,0.5,0.9,1,1.3,1.5c0.4,0.5,0.8,1,1.2,1.6
	s0.8,1.1,1.1,1.6c0.4,0.6,0.7,1.1,1,1.7l63,113l60.8-112c0.3-0.6,0.7-1.2,1-1.7c0.4-0.6,0.7-1.1,1.1-1.6c0.4-0.6,0.8-1.1,1.3-1.6
	c0.4-0.5,0.9-1,1.3-1.5c0.4-0.4,0.9-0.9,1.4-1.4c0.5-0.5,1-0.9,1.5-1.3c0.5-0.4,1.1-0.8,1.6-1.2c0.6-0.4,1.1-0.8,1.7-1.1
	c0.6-0.3,1.2-0.7,1.8-1c0.6-0.3,1.2-0.6,1.8-0.9c0.6-0.3,1.2-0.5,1.9-0.7c0.6-0.2,1.3-0.4,1.9-0.6c0.6-0.2,1.3-0.3,1.9-0.5
	c0.6-0.1,1.3-0.3,2-0.3c0.7-0.1,1.3-0.2,2-0.2c0.7,0,1.3-0.1,2-0.1c0.7,0,1.3,0,2,0.1c0.6,0,1.3,0.1,2,0.2c0.7,0.1,1.3,0.2,2,0.3
	c0.7,0.1,1.3,0.3,1.9,0.5c0.7,0.2,1.3,0.4,1.9,0.6c0.6,0.2,1.3,0.5,1.9,0.7c0.6,0.2,1.2,0.5,1.8,0.8c0.6,0.3,1.2,0.6,1.8,1
	c0.6,0.3,1.1,0.7,1.7,1c0.6,0.4,1.1,0.8,1.6,1.2c0.5,0.4,1,0.8,1.5,1.3c0.5,0.5,1,0.9,1.4,1.4c0.5,0.5,0.9,1,1.4,1.5
	c0.4,0.5,0.8,1,1.2,1.5c0.4,0.5,0.8,1.1,1.2,1.7c0.4,0.6,0.7,1.1,1,1.7l62.4,112l59.1-112c0.3-0.6,0.6-1.2,1-1.7
	c0.3-0.5,0.7-1.1,1.1-1.7c0.4-0.5,0.8-1,1.2-1.6c0.4-0.5,0.9-1,1.3-1.5c0.5-0.5,0.9-1,1.4-1.4c0.5-0.5,1-0.9,1.5-1.3
	c0.5-0.4,1-0.8,1.6-1.2c0.5-0.4,1.1-0.8,1.6-1.1c0.6-0.4,1.2-0.7,1.7-1c0.6-0.3,1.2-0.6,1.8-0.9c0.6-0.3,1.2-0.5,1.8-0.7
	c0.6-0.2,1.3-0.4,1.9-0.6c0.6-0.2,1.2-0.4,1.9-0.5c0.6-0.1,1.3-0.3,1.9-0.4c0.7-0.1,1.3-0.2,2-0.3c0.6-0.1,1.3-0.1,2-0.1
	c0.7,0,1.3,0,2,0c0.7,0,1.3,0.1,2,0.1c0.7,0.1,1.3,0.2,2,0.3c0.7,0.1,1.3,0.3,2,0.4c0.6,0.2,1.3,0.3,1.9,0.5
	c0.6,0.2,1.3,0.4,1.9,0.7c0.6,0.2,1.2,0.5,1.8,0.8c0.6,0.3,1.2,0.6,1.8,0.9c0.6,0.3,1.2,0.7,1.7,1c0.6,0.4,1.1,0.7,1.6,1.1
	c0.5,0.4,1.1,0.8,1.6,1.2c0.5,0.4,1,0.8,1.4,1.3c0.5,0.5,0.9,0.9,1.4,1.4c0.4,0.5,0.9,1,1.3,1.5c0.4,0.5,0.8,1.1,1.2,1.6
	c0.4,0.5,0.7,1.1,1.1,1.6L562,348.8L536.3,364.3z"/>
</svg>
